
        <svg xmlns="http://www.w3.org/2000/svg" xmlns:xlink="http://www.w3.org/1999/xlink" version="1.1" width="3242.0282964060425" 
        height="1457.3055167427515" viewBox="0 0 3242.0282964060425 1457.3055167427515">
			<rect fill="#060606" width="3242.0282964060425" height="1457.3055167427515"/>
			<g transform="scale(12.101414820302136) translate(10, 10)">
				<defs id="SvgjsDefs6821"></defs><g id="SvgjsG6822" featureKey="G09qjj-0" transform="matrix(1.255914540814018,0,0,1.255914540814018,-17.8214268071482,-12.55914540814018)" fill="#ffe602"><title xmlns="http://www.w3.org/2000/svg"></title><path xmlns="http://www.w3.org/2000/svg" d="M85.83,46.45A13,13,0,0,0,85,42.56,22.76,22.76,0,0,0,83.36,39c-.67-1.1-1.37-2.17-2.13-3.2-1.49-2.06-3.13-4-4.74-5.91l-2.44-2.88c-.81-1-1.7-1.88-2.55-2.81-1.71-1.83-3.41-3.68-5.18-5.49a53.5,53.5,0,0,0-5.7-5.19c-.5-.42-1.07-.78-1.62-1.16l-.87-.53-.44-.26-.47-.23c-.32-.14-.62-.31-.95-.44l-1-.37a10.93,10.93,0,0,0-1.06-.28,6.44,6.44,0,0,0-1.07-.17A9.45,9.45,0,0,0,52.06,10l-.55,0h-.27L51,10c-.37,0-.75.06-1.12.11l-1.07.24A16.35,16.35,0,0,0,44.88,12a40.3,40.3,0,0,0-6.28,4.76c-1.91,1.71-3.71,3.49-5.49,5.26L31.76,23.4l-.68.69-.64.7L27.9,27.58c-1.69,1.84-3.4,3.68-5.07,5.6A69.67,69.67,0,0,0,18,39.24a31.28,31.28,0,0,0-2.09,3.47c-.15.31-.29.63-.44.95a9.74,9.74,0,0,0-.4,1l-.35,1c-.09.36-.17.72-.26,1.08,0,.18-.09.36-.11.54l-.06.54a9.85,9.85,0,0,0-.1,1.08l0,1.09c0,.37,0,.76.07,1.13,0,.19,0,.38.06.56l.11.55c.08.36.13.74.24,1.08l.33,1c.1.35.26.66.39,1a30.18,30.18,0,0,0,4.27,6.8c1.62,2,3.33,3.91,5,5.77l2.57,2.76,1.3,1.4c.22.23.43.47.66.7l.69.67c3.61,3.48,7.12,7,11,10.37a37.28,37.28,0,0,0,6.43,4.5,15.57,15.57,0,0,0,3.87,1.43,11,11,0,0,0,4.27.08h-.13a12.33,12.33,0,0,0,2.36-.47,15.17,15.17,0,0,0,2.15-.89,23.6,23.6,0,0,0,3.76-2.4A71.08,71.08,0,0,0,70,80.29c2-2,4-4.06,6-6.08l3-3c1-1,2-2,3-3a.24.24,0,0,0-.32-.36c-2.23,1.76-4.4,3.6-6.53,5.48L68.82,79a66.88,66.88,0,0,1-6.53,5.24,22.3,22.3,0,0,1-3.49,2A12.72,12.72,0,0,1,57,86.9a9.58,9.58,0,0,1-1.82.29H55a9.94,9.94,0,0,1-6.28-1.53,34,34,0,0,1-5.7-4.32c-1.81-1.64-3.55-3.4-5.29-5.18l-5.25-5.36-.63-.65c-.21-.22-.41-.45-.62-.68L30.05,68.1l-2.48-2.8c-1.64-1.87-3.25-3.74-4.72-5.66a26.15,26.15,0,0,1-3.64-5.91,7.81,7.81,0,0,1-.3-.75l-.23-.76c-.08-.25-.1-.5-.16-.75l-.07-.37c0-.13,0-.25,0-.38s-.05-.49,0-.74l.05-.79a6.87,6.87,0,0,1,.08-.78l0-.4c0-.13.06-.25.09-.37l.18-.75.27-.75a5.91,5.91,0,0,1,.32-.74c.11-.25.22-.5.35-.75a26.17,26.17,0,0,1,1.81-2.94A69.29,69.29,0,0,1,26.12,36c1.62-1.86,3.28-3.72,5-5.58.84-.94,1.67-1.89,2.48-2.81l.6-.7.64-.66L36.07,25c1.73-1.8,3.45-3.58,5.21-5.28a37.09,37.09,0,0,1,5.49-4.52,13.25,13.25,0,0,1,2.95-1.41l.74-.2.75-.11.19,0H52a7.13,7.13,0,0,1,.8,0,5,5,0,0,1,.78.08c.25.06.51.09.76.16l.77.25c.26.08.51.21.77.31l.38.17.38.2c.25.14.51.26.76.41.49.31,1,.59,1.48,1a53,53,0,0,1,5.62,4.66c1.81,1.69,3.59,3.44,5.36,5.21.88.88,1.78,1.73,2.61,2.65L75,31.24c1.68,1.84,3.32,3.71,4.82,5.66.76,1,1.46,2,2.11,3a21.06,21.06,0,0,1,1.65,3.2,12.23,12.23,0,0,1,.74,3.43A9.38,9.38,0,0,1,83.93,50a19.54,19.54,0,0,1-3.54,6.26,61.38,61.38,0,0,1-5,5.43L74,63l-1.39,1.21c-1,.79-1.91,1.59-2.9,2.31a39.78,39.78,0,0,1-6.23,3.9,24.76,24.76,0,0,1-3.36,1.34,17.41,17.41,0,0,1-3.48.68,18,18,0,0,1-3.53-.1,15.51,15.51,0,0,1-3.4-.9,20.66,20.66,0,0,1-3.21-1.56,28.54,28.54,0,0,1-3-2,45.44,45.44,0,0,1-5.36-5,33.26,33.26,0,0,1-2.34-2.74,26.83,26.83,0,0,1-1.92-3,17.52,17.52,0,0,1-2.1-6.51A16.15,16.15,0,0,1,32.57,44a20.29,20.29,0,0,1,1.35-3.16,23.57,23.57,0,0,1,1.84-3A32.31,32.31,0,0,1,38,35.06c.39-.44.8-.87,1.21-1.31s.88-.87,1.3-1.31A29.06,29.06,0,0,1,43.07,30a19.12,19.12,0,0,1,2.79-1.94A13.23,13.23,0,0,1,52,26.23a12.69,12.69,0,0,1,6.16,1.45,22.79,22.79,0,0,1,5.49,4c.42.39.82.82,1.23,1.24l1.24,1.35A32,32,0,0,1,68.31,37a18.92,18.92,0,0,1,3,5.9,11.35,11.35,0,0,1,0,6.09,14.08,14.08,0,0,1-3.16,5.47l-.56.61-.6.59c-.43.4-.87.8-1.3,1.16l-.64.56c-.21.19-.44.33-.66.5l-.67.49c-.22.16-.46.28-.7.43a15.34,15.34,0,0,1-6,2.15,12.63,12.63,0,0,1-6.15-.71l-.73-.28c-.24-.11-.47-.24-.71-.36s-.47-.23-.7-.36l-.66-.44a7.13,7.13,0,0,1-.67-.45l-.63-.5a11.44,11.44,0,0,1-1.22-1.11A13.51,13.51,0,0,1,42,51.51a12.43,12.43,0,0,1,2.07-11.83,14,14,0,0,1,1-1.28l.57-.62c.19-.2.39-.38.59-.57a11.69,11.69,0,0,1,1.21-1,6.51,6.51,0,0,1,.64-.43,4.15,4.15,0,0,1,.66-.4l.68-.35c.23-.12.47-.18.71-.28l.35-.13.36-.1c.24-.06.48-.13.73-.18a9.92,9.92,0,0,1,3-.06,11.21,11.21,0,0,1,2.94.9,13.47,13.47,0,0,1,2.69,1.75A14.15,14.15,0,0,1,61.46,38c.2.19.38.4.57.6s.38.41.55.62a13.5,13.5,0,0,1,1.71,2.7,9.16,9.16,0,0,1,.66,6,8.49,8.49,0,0,1-1.24,2.83c-.07.11-.13.22-.21.33l-.25.31c-.17.21-.31.43-.5.63l-.57.59c-.19.2-.4.36-.6.55a10.44,10.44,0,0,1-2.69,1.72,10.1,10.1,0,0,1-3.07.76A9.25,9.25,0,0,1,49.75,54l-.65-.48L48.49,53a7.94,7.94,0,0,1-.57-.59,3.85,3.85,0,0,1-.27-.3l-.24-.32A8.52,8.52,0,0,1,46,48.91a8.79,8.79,0,0,1,.77-6.36,9.92,9.92,0,0,1,2-2.65,7.36,7.36,0,0,1,9.26-.82,8.58,8.58,0,0,1,4,5.5,7,7,0,0,1-.17,3.48,7.62,7.62,0,0,1-1.85,3.06.24.24,0,0,0,0,.33.24.24,0,0,0,.34,0,8.15,8.15,0,0,0,2.24-3.15,7.77,7.77,0,0,0,.48-3.91,8.61,8.61,0,0,0-.48-1.94c-.14-.31-.25-.63-.41-.92s-.31-.6-.5-.87A11.16,11.16,0,0,0,59,37.8a9.84,9.84,0,0,0-3.73-1.63,9,9,0,0,0-4.15.14,9.66,9.66,0,0,0-3.68,1.94,12.83,12.83,0,0,0-2.68,3.14,11.32,11.32,0,0,0-1.36,8.15A11,11,0,0,0,45,53.47l.3.44c.1.15.23.27.34.41a9,9,0,0,0,.7.79l.75.74.83.67A12.55,12.55,0,0,0,56,59a13.27,13.27,0,0,0,7.92-3c.27-.23.56-.44.81-.69l.75-.74c.25-.24.47-.54.71-.81l.34-.41.31-.45a12.72,12.72,0,0,0,2.3-8.37,14.39,14.39,0,0,0-1.05-4.26,18.23,18.23,0,0,0-2.17-3.7c-.21-.29-.45-.53-.67-.8s-.46-.54-.7-.78a20.64,20.64,0,0,0-1.51-1.44,17.43,17.43,0,0,0-3.55-2.4,15.48,15.48,0,0,0-4.18-1.4,14.76,14.76,0,0,0-4.5,0c-.37.06-.73.16-1.1.24-.18.05-.37.08-.55.14l-.53.18c-.35.13-.71.23-1,.39l-1,.48a8.84,8.84,0,0,0-1,.54,9.85,9.85,0,0,0-.93.6A18.65,18.65,0,0,0,43,33.67c-.26.24-.53.47-.78.72l-.71.75a17.63,17.63,0,0,0-1.36,1.6l-.33.42-.29.44-.59.89c-.2.3-.35.62-.53.94s-.35.62-.49,1l-.43,1-.21.5-.16.52-.33,1c-.09.35-.15.71-.23,1.07a15.88,15.88,0,0,0-.3,2.18c0,.37,0,.74,0,1.11a10.29,10.29,0,0,0,0,1.11,16.26,16.26,0,0,0,.31,2.19c.09.36.15.73.25,1.08l.35,1.06.18.52.23.5.45,1c.17.32.36.63.54.95s.36.64.58.93a22.85,22.85,0,0,0,2.74,3.25,19.72,19.72,0,0,0,7.13,4.68,17.68,17.68,0,0,0,8.61,1,20.47,20.47,0,0,0,8-2.91c.3-.19.61-.36.9-.56l.85-.63c.27-.21.57-.41.83-.63l.77-.68c.52-.45,1-.9,1.48-1.36l.73-.74c.24-.25.47-.52.7-.77a19.18,19.18,0,0,0,4.15-7.51A16.2,16.2,0,0,0,76,41.56a23.19,23.19,0,0,0-3.81-7.42,35.47,35.47,0,0,0-2.6-3.06l-1.32-1.39c-.48-.47-.94-1-1.44-1.4a27.11,27.11,0,0,0-6.69-4.68,17,17,0,0,0-8.34-1.78,16,16,0,0,0-4.25.8,19.4,19.4,0,0,0-3.83,1.78,24.5,24.5,0,0,0-3.32,2.41,34,34,0,0,0-2.84,2.77c-.44.47-.87.9-1.31,1.39s-.88,1-1.3,1.48a35.46,35.46,0,0,0-2.37,3.18,29,29,0,0,0-2,3.47,23.79,23.79,0,0,0-1.47,3.79,19.58,19.58,0,0,0-.6,8.17,21,21,0,0,0,2.79,7.59,30.05,30.05,0,0,0,4.94,6.11,49.37,49.37,0,0,0,5.86,5A27.53,27.53,0,0,0,49,73.43a17.55,17.55,0,0,0,3.87.89,19.5,19.5,0,0,0,4,0,19.89,19.89,0,0,0,3.85-.86,26.35,26.35,0,0,0,3.58-1.52,41.77,41.77,0,0,0,6.41-4.18c1-.78,2-1.59,2.94-2.4l1.44-1.26,1.36-1.33a65,65,0,0,0,5.12-5.61A30.74,30.74,0,0,0,83.74,54a17.17,17.17,0,0,0,1.61-3.57A11.11,11.11,0,0,0,85.83,46.45Z"></path></g><g id="SvgjsG6823" featureKey="nameLeftFeature-0" transform="matrix(2.654886779880925,0,0,2.654886779880925,108.4258130871804,14.901364312878929)" fill="#33b4e7"><path d="M10.237 17.5764 c0.22034 0 0.33898 0.11864 0.33898 0.30508 l0 1.2881 c0 0.52542 -0.37305 0.83051 -0.86441 0.83051 l-8.7966 0 c-0.16949 0 -0.32203 -0.13543 -0.32203 -0.32203 l0 -0.37288 l0.20339 -0.35593 l5.9831 -10.102 l-5.7627 0 c-0.20339 0 -0.35593 -0.13559 -0.35593 -0.32203 l0 -1.7458 c0 -0.18644 0.13559 -0.33898 0.35593 -0.33898 l9.2203 0 c0.18644 0 0.33898 0.13559 0.33898 0.32203 l0 0.30508 l-0.033898 0.067797 l-6.1356 10.441 l5.8305 0 z M23.711491525423728 6.441000000000001 c0.18661 0 0.30525 0.20339 0.18661 0.38983 l-5.0169 7.7119 l0 5.1188 c0 0.20339 -0.11864 0.33881 -0.30525 0.33881 l-1.2712 0 c-0.52542 0 -0.83051 -0.37288 -0.83051 -0.86441 l0 -4.5932 l-5 -7.7119 c-0.11864 -0.18644 0 -0.38983 0.18644 -0.38983 l2.1695 0 c0.18644 0 0.27119 0.15254 0.37288 0.32203 l3.4746 5.3559 l3.4576 -5.3559 c0.11864 -0.16949 0.20339 -0.32203 0.37288 -0.32203 l2.2034 0 z"></path></g><g id="SvgjsG6824" featureKey="nameRightFeature-0" transform="matrix(2.6093575871392174,0,0,2.6093575871392174,177.6830650409168,15.50361637965537)" fill="#33b4e7"><path d="M12.678 6.441000000000001 c0.11864 0 0.20356 0.067631 0.20356 0.18627 l0 13.186 c0 0.11881 -0.084746 0.18644 -0.20339 0.18644 l-0.35593 0 c-0.25441 0 -0.49169 -0.16933 -0.81373 -0.52525 l-8.9153 -10.525 l0 10.831 c0 0.13559 -0.084746 0.22017 -0.22034 0.22017 l-0.88136 0 c-0.15254 0 -0.22034 -0.08458 -0.22034 -0.22017 l0 -13.136 c0 -0.11864 0.067797 -0.20339 0.20339 -0.20339 l0.55932 0 c0.11864 0 0.20339 0.050847 0.32203 0.18644 l9.2034 10.932 l0 -10.932 c0 -0.11864 0.067797 -0.18644 0.18644 -0.18644 l0.9322 0 z M26.813542372881358 17.729 c0.11864 0.08458 0.084746 0.22017 -0.067797 0.37271 c-1.2544 1.2542 -2.8814 2.0168 -4.8983 2.0168 c-3.8136 0 -6.9322 -3.0168 -6.9322 -6.8812 c0 -3.8475 3.1186 -6.9153 6.9322 -6.9153 c1.9322 0 3.661 0.74576 4.9322 2.0169 c0.15254 0.15254 0.16949 0.27119 0.067797 0.35593 l-0.71186 0.59322 c-0.11864 0.10169 -0.22034 0.10169 -0.33898 -0.016949 c-0.71186 -0.74559 -2.1186 -1.6608 -3.8475 -1.6608 c-3.678 0 -5.7119 2.9831 -5.7119 5.6271 c0 2.678 2.0339 5.5932 5.7119 5.5932 c1.7288 0 3.0508 -0.88136 3.7966 -1.6271 c0.13559 -0.13559 0.23729 -0.16949 0.35593 -0.067797 z"></path></g>
			</g>
		</svg>
	